<svg width="143" height="149" viewBox="0 0 143 149" fill="none" xmlns="http://www.w3.org/2000/svg">
<path fill-rule="evenodd" clip-rule="evenodd" d="M141.93 33.1349C141.983 33.3302 142.01 33.5315 142.01 33.7338V65.1728C142.01 65.5763 141.904 65.9727 141.702 66.3219C141.5 66.671 141.21 66.9606 140.861 67.1614L114.523 82.3536V112.466C114.523 113.285 114.088 114.042 113.379 114.455L58.4012 146.163C58.2754 146.235 58.1381 146.28 58.0008 146.329C57.9493 146.346 57.9007 146.378 57.8464 146.392C57.462 146.494 57.0581 146.494 56.6738 146.392C56.6108 146.375 56.5536 146.341 56.4936 146.318C56.3677 146.272 56.2362 146.232 56.1161 146.163L1.14972 114.455C0.800535 114.254 0.510398 113.964 0.30855 113.615C0.106702 113.266 0.000276675 112.869 0 112.466L0 18.149C0 17.9427 0.0286 17.7421 0.08008 17.5472C0.09724 17.4813 0.13728 17.4212 0.16016 17.3553C0.20306 17.2349 0.2431 17.1117 0.30602 17C0.34892 16.9255 0.41184 16.8653 0.46332 16.7965C0.5291 16.7048 0.58916 16.6103 0.66638 16.53C0.73216 16.4641 0.81796 16.4154 0.89232 16.3581C0.97526 16.2893 1.04962 16.2148 1.144 16.1604L28.6315 0.306227C28.9795 0.105594 29.3739 0 29.7755 0C30.177 0 30.5714 0.105594 30.9195 0.306227L58.4041 16.1604H58.4098C58.5013 16.2177 58.5785 16.2893 58.6615 16.3552C58.7358 16.4126 58.8188 16.4641 58.8845 16.5272C58.9646 16.6103 59.0218 16.7048 59.0905 16.7965C59.1391 16.8653 59.2049 16.9255 59.2449 17C59.3107 17.1146 59.3479 17.2349 59.3936 17.3553C59.4165 17.4212 59.4565 17.4813 59.4737 17.5501C59.5264 17.7454 59.5533 17.9467 59.5538 18.149V77.0584L82.4567 63.8461V33.7309C82.4567 33.5304 82.4853 33.3269 82.5367 33.1349C82.5568 33.0662 82.5939 33.006 82.6168 32.9401C82.6626 32.8197 82.7026 32.6965 82.7655 32.5848C82.8084 32.5103 82.8714 32.4501 82.92 32.3813C82.9886 32.2896 83.0458 32.1951 83.1259 32.1149C83.1917 32.049 83.2746 32.0002 83.349 31.9429C83.4348 31.8742 83.5091 31.7997 83.6007 31.7452L111.091 15.8911C111.439 15.6901 111.833 15.5844 112.235 15.5844C112.637 15.5844 113.031 15.6901 113.379 15.8911L140.864 31.7452C140.961 31.8025 141.035 31.8742 141.121 31.9401C141.192 31.9974 141.275 32.049 141.341 32.112C141.421 32.1951 141.478 32.2896 141.547 32.3813C141.599 32.4501 141.662 32.5103 141.702 32.5848C141.767 32.6965 141.805 32.8197 141.85 32.9401C141.876 33.006 141.913 33.0662 141.93 33.1349ZM137.429 63.8461V37.7024L127.811 43.2497L114.523 50.9146V77.0584L137.432 63.8461H137.429ZM109.944 111.139V84.9783L96.8739 92.457L59.5509 113.798V140.206L109.944 111.139ZM4.58172 22.1175V111.139L54.9692 140.203V113.801L28.6458 98.8755L28.6372 98.8697L28.6257 98.864C28.5371 98.8124 28.4627 98.7379 28.3798 98.6749C28.3083 98.6176 28.2253 98.5717 28.1624 98.5087L28.1567 98.5001C28.0823 98.4285 28.0309 98.3396 27.9679 98.2594C27.9107 98.182 27.8421 98.1161 27.7963 98.0359L27.7935 98.0273C27.742 97.9413 27.7105 97.8382 27.6734 97.7408C27.6362 97.6548 27.5876 97.5746 27.5647 97.4829C27.5361 97.374 27.5304 97.2565 27.5189 97.1448C27.5075 97.0588 27.4846 96.9728 27.4846 96.8869V96.8811V35.3298L14.1999 27.6621L4.58172 22.1175ZM29.7783 4.94242L6.8783 18.149L29.7726 31.3555L52.6698 18.1461L29.7726 4.94242H29.7783ZM41.6874 87.3623L54.9721 79.7003V22.1175L45.3539 27.6649L32.0663 35.3298V92.9126L41.6874 87.3623ZM112.235 20.5272L89.3378 33.7338L112.235 46.9404L135.129 33.7309L112.235 20.5272ZM109.944 50.9146L96.6566 43.2497L87.0384 37.7024V63.8461L100.323 71.5082L109.944 77.0584V50.9146ZM57.2572 109.83L90.8422 90.6203L107.63 81.0212L84.7504 67.8233L58.4069 83.0184L34.3972 96.8668L57.2572 109.83Z" fill="#3F3F3F"/>
</svg>
