<svg width="143" height="138" viewBox="0 0 143 138" fill="none" xmlns="http://www.w3.org/2000/svg">
<path fill-rule="evenodd" clip-rule="evenodd" d="M82.8751 2.28931C81.8972 2.28931 80.9891 2.49865 80.1509 2.77777C81.9321 3.96403 82.91 5.5341 83.3989 7.3135C83.434 7.55773 83.5037 7.73219 83.5387 7.97641C83.5737 8.18575 83.6085 8.39509 83.6085 8.60444C83.7483 11.6748 82.8052 12.0586 82.1416 13.8729C81.1288 16.2105 81.4082 18.7226 82.6306 20.7462C82.7354 20.9905 82.8751 21.2696 83.0497 21.5138C81.7225 12.6866 89.0917 11.3608 90.4538 8.60444C90.5586 6.19701 88.5678 4.59206 86.9962 3.47557C85.4944 2.56843 84.1323 2.28931 82.8751 2.28931ZM93.9812 4.27805C93.8415 5.08052 93.9463 4.87118 93.9114 5.28987C93.8765 5.56898 93.8765 5.91789 93.8416 6.19701C93.7719 6.47613 93.7019 6.75525 93.5972 7.03438C93.5274 7.3135 93.4225 7.59262 93.3178 7.87174C93.178 8.15087 93.0733 8.39509 92.9336 8.67421C92.8288 8.81383 92.759 8.95333 92.6542 9.0929C92.5844 9.19757 92.5144 9.30224 92.4446 9.40691C92.27 9.65115 92.0954 9.89537 91.9208 10.1047C91.7112 10.3141 91.5366 10.5583 91.2921 10.7327V10.7677C91.0826 10.9421 90.873 11.1515 90.6285 11.3259C89.8951 11.8842 89.0569 12.3028 88.2885 12.8262C88.0441 13.0006 87.7996 13.1402 87.5901 13.3496C87.3456 13.524 87.136 13.6984 86.9265 13.9078C86.682 14.1171 86.5074 14.3265 86.2978 14.5707C86.1232 14.7801 85.9136 15.0243 85.7739 15.2685C85.5993 15.5127 85.4247 15.757 85.285 16.0012C85.1452 16.2803 85.0405 16.5246 84.9008 16.8037C84.796 17.0828 84.6913 17.327 84.6214 17.6062C84.5166 17.9202 84.4468 18.1993 84.3769 18.4784C84.342 18.618 84.342 18.7924 84.3071 18.932C84.2721 19.0716 84.2721 19.2111 84.2374 19.3507C84.2374 19.6298 84.2024 19.9438 84.2024 20.2229C84.2024 20.4323 84.2024 20.6416 84.2374 20.851C84.2374 21.1301 84.2723 21.4092 84.3421 21.7232C84.3771 22.0023 84.4469 22.2814 84.5168 22.5606C84.6215 22.8397 84.6914 23.1188 84.7961 23.3979C84.866 23.5724 84.9708 23.7468 85.0406 23.8864L77.0079 20.7812C75.6458 20.3974 74.3186 20.0485 72.9565 19.7345C72.2231 19.56 71.4897 19.3856 70.7563 19.2111C68.6607 18.7924 66.5303 18.4784 64.3999 18.2691C64.3301 18.2691 64.2951 18.2341 64.2253 18.2341C62.1298 18.0248 60.0692 17.9201 57.9737 17.9201C56.437 17.9201 54.9003 17.9899 53.3985 18.0946C51.268 18.2342 49.1376 18.5133 47.0072 18.8622C46.4833 18.9319 45.9594 19.0366 45.4356 19.1413C44.3529 19.3506 43.3051 19.5949 42.2923 19.8391C41.7684 19.9787 41.2445 20.1182 40.7207 20.2578C40.1968 20.4671 39.7078 20.7113 39.2189 20.9207C38.8347 21.0951 38.4505 21.2696 38.0664 21.444C37.9966 21.479 37.9266 21.479 37.8917 21.5138C37.5425 21.6882 37.2282 21.8278 36.9138 22.0022C36.8091 22.0372 36.7392 22.072 36.6694 22.1069C36.2852 22.2814 35.901 22.4907 35.5867 22.6651C35.3422 22.7698 35.0977 22.9094 34.8882 23.0141C34.7834 23.0838 34.6437 23.1537 34.5739 23.1885C34.2595 23.3629 33.9452 23.5374 33.6658 23.7119C33.3515 23.8863 33.0721 24.0607 32.8276 24.2352C32.5831 24.4097 32.3386 24.5492 32.1291 24.7237C32.0941 24.7586 32.0593 24.7586 32.0243 24.7934C31.8148 24.933 31.5703 25.1074 31.3607 25.2819C31.3607 25.2819 31.3258 25.3168 31.2909 25.3516C31.1163 25.4912 30.9417 25.6307 30.7671 25.7703C30.6973 25.8052 30.6273 25.8749 30.5575 25.9099C30.3829 26.0495 30.2083 26.2239 30.0337 26.3635C29.9987 26.4332 29.9289 26.4681 29.8939 26.5031C29.6843 26.7124 29.4748 26.8869 29.2652 27.0962C29.2303 27.0962 29.2303 27.1311 29.1954 27.1659C28.9859 27.3404 28.7763 27.5497 28.5668 27.7591C28.5318 27.794 28.5318 27.8288 28.497 27.8288C28.3224 28.0032 28.1477 28.1777 27.9731 28.387C27.9033 28.4568 27.7985 28.5266 27.7286 28.5964C27.554 28.8057 27.3445 29.0151 27.1349 29.2244C27.0999 29.2941 27.0301 29.3291 26.9952 29.3988C26.7158 29.678 26.4713 29.9571 26.1919 30.2362C26.1569 30.2712 26.1221 30.3059 26.0871 30.3409C25.5283 30.934 24.9346 31.5271 24.3059 32.0505C23.6773 32.6087 23.0137 33.1321 22.3501 33.5857C21.6516 34.0741 20.988 34.4928 20.2546 34.9115C19.5561 35.2953 18.8227 35.6442 18.0543 35.9582C17.3209 36.2722 16.5526 36.5513 15.7842 36.7956C14.3173 37.1096 12.8156 37.7027 11.5233 37.8074C11.2439 37.8074 10.9296 37.8771 10.6502 37.912C10.3359 37.9818 10.0565 38.0517 9.77709 38.1214C9.49769 38.2261 9.21828 38.3307 8.93888 38.4354C8.65948 38.5401 8.38009 38.6796 8.10069 38.8192C7.85621 38.9936 7.57681 39.1332 7.33233 39.3077C7.08786 39.4821 6.84338 39.6914 6.63382 39.9008C6.38936 40.0753 6.14487 40.3195 5.93532 40.5288C5.72577 40.7731 5.51622 40.9824 5.3416 41.2266C5.16698 41.5057 4.95742 41.75 4.81772 42.0291C4.6431 42.2733 4.46847 42.5525 4.32877 42.8316C4.18901 43.1456 4.04937 43.4247 3.94459 43.7387C3.83982 44.0178 3.73504 44.3319 3.63027 44.6459C3.56047 44.925 3.49051 45.2041 3.45564 45.4832C3.45564 45.5182 3.42067 45.553 3.42067 45.5879C3.35087 45.9019 3.35087 46.3206 3.31589 46.53C3.28091 46.7742 3.24609 46.9835 3.24609 47.2278C3.24609 47.3674 3.24609 47.5418 3.28107 47.6813C3.31605 47.9256 3.35087 48.1349 3.42083 48.3443C3.49062 48.5536 3.56058 48.7629 3.6653 48.9723V49.0072C3.77007 49.2166 3.90978 49.4259 4.04947 49.6352C4.18922 49.8446 4.32888 50.0539 4.5035 50.2633C4.67812 50.4377 4.88768 50.647 5.09723 50.8215C5.30678 51.0308 5.51633 51.2053 5.7608 51.3797C6.59901 52.1124 6.80856 52.3567 7.89124 52.9149C8.06586 53.0196 8.2405 53.0894 8.45005 53.194C8.48503 53.194 8.51984 53.229 8.55482 53.229C8.55482 53.2987 8.55482 53.3336 8.58981 53.4034C8.62479 53.6826 8.69458 53.9617 8.76443 54.2408C8.83422 54.5548 8.93907 54.8339 9.04384 55.0782C9.14862 55.2875 9.21846 55.4968 9.32324 55.7062C9.35822 55.7759 9.39304 55.8458 9.42802 55.8806C9.56777 56.1598 9.70741 56.404 9.8471 56.6482C10.0217 56.8925 10.1964 57.1367 10.371 57.3809C10.5456 57.5903 10.7552 57.8345 10.9647 58.0438C11.1743 58.2532 11.3838 58.4276 11.6283 58.6369C11.6283 58.6369 11.6633 58.6719 11.6981 58.6719C11.9076 58.8464 12.1172 59.0209 12.3268 59.1604C12.5712 59.3349 12.8157 59.4744 13.0951 59.614C13.3396 59.7536 13.619 59.8931 13.8984 59.9978C14.1079 60.1024 14.3524 60.1722 14.5969 60.242C14.6319 60.277 14.6667 60.277 14.7366 60.3117C14.8764 60.3467 15.0509 60.3815 15.1907 60.4164C15.0859 62.3005 15.0509 64.0799 15.3304 64.7079C15.6447 65.4057 17.1814 63.2774 18.7181 60.8351C18.5086 63.2425 18.3689 66.0686 18.7181 66.906C19.1023 67.7782 21.1978 65.0568 23.0139 62.0562C47.7758 56.3343 70.3724 73.4305 72.7473 97.5745C72.2932 93.8063 67.6482 91.7129 65.5178 92.2363C64.47 94.8181 62.6888 98.1327 59.825 100.191C60.0695 97.8885 59.9647 95.516 59.4757 93.2132C58.7074 96.4231 57.2056 99.4237 55.145 102.006C51.8271 102.25 48.5092 100.645 46.763 98.2374C46.6232 98.1327 46.5884 97.9234 46.4836 97.7838C46.3788 97.5396 46.274 97.2954 46.2042 97.0511C46.0994 96.8069 46.0296 96.5627 45.9946 96.3184C45.9596 96.0742 45.9596 95.83 45.9596 95.5508C45.9596 95.3764 45.9596 95.2019 45.9596 95.0275C45.9946 94.7832 46.0644 94.539 46.1343 94.2948C46.2041 94.0506 46.274 93.8063 46.3788 93.5621C46.5185 93.3179 46.6232 93.0736 46.7979 92.8294C47.3916 91.1547 47.3916 89.794 46.3089 88.9915C46.0994 88.8519 45.8898 88.7472 45.6453 88.6426C45.5056 88.6076 45.331 88.5379 45.1913 88.503C45.0865 88.468 45.0167 88.4332 44.9119 88.3983C44.6674 88.3286 44.4229 88.2587 44.1785 88.2238C43.934 88.1541 43.6895 88.1192 43.445 88.1192C43.2006 88.0842 42.9212 88.0494 42.6767 88.0494C42.5021 88.0494 42.3274 88.0844 42.1528 88.0844C41.8734 88.0844 41.6289 88.1194 41.3845 88.189C41.14 88.224 40.8955 88.2588 40.651 88.3286C40.4066 88.3984 40.1621 88.4683 39.9176 88.5729C39.6731 88.6776 39.4636 88.7822 39.2191 88.8869C39.0096 88.9916 38.8 89.1311 38.5555 89.2358C30.418 94.5391 35.2726 106.96 40.8257 110.554C38.7301 110.938 36.5997 111.391 36.006 111.845C35.971 111.88 35.9362 111.914 35.9362 111.914C37.438 112.822 39.0096 113.589 40.6511 114.252C42.8863 114.985 45.2612 115.648 46.309 115.927V115.962C49.2077 116.555 52.1415 116.764 55.1101 116.59C70.5819 115.508 83.2597 103.75 85.5648 88.2589C85.6346 88.5729 85.7045 88.852 85.7743 89.166C85.8791 89.794 86.0188 90.457 86.0886 91.1199V91.1548C86.1584 91.4689 86.1934 91.7829 86.2284 92.062V92.2016C86.2634 92.5156 86.2982 92.8296 86.2982 93.1088C86.3332 93.4925 86.368 93.8763 86.368 94.2601V94.8184C86.368 94.9928 86.403 95.2022 86.403 95.3766C86.403 95.586 86.368 95.7953 86.368 96.0046V96.4931C86.368 96.7373 86.333 96.9467 86.333 97.1909C86.333 97.3305 86.333 97.47 86.298 97.6445C86.298 97.8887 86.263 98.1329 86.263 98.4121C86.228 98.5167 86.228 98.6214 86.228 98.7261C86.1931 99.0052 86.1582 99.2494 86.1232 99.5286C86.1232 99.6332 86.1232 99.7379 86.0883 99.8426C86.0532 100.191 85.9835 100.505 85.9485 100.854V100.889V100.924C85.8787 101.238 85.8088 101.587 85.739 101.901V102.006C85.6692 102.32 85.5992 102.634 85.5294 102.948C85.5294 102.983 85.4945 103.053 85.4945 103.088C85.4246 103.402 85.3547 103.716 85.25 104.03V104.134C85.1452 104.483 85.0404 104.797 84.9706 105.111C84.9356 105.146 84.9356 105.181 84.9356 105.181C84.8308 105.53 84.7261 105.879 84.6213 106.228C84.4815 106.577 84.3768 106.891 84.2371 107.239C84.0974 107.588 83.9926 107.937 83.8529 108.251C83.7132 108.6 83.5735 108.914 83.4338 109.263H83.3988C83.259 109.577 83.1194 109.926 82.9448 110.24C82.9098 110.345 82.875 110.414 82.84 110.484C82.805 110.519 82.805 110.554 82.7702 110.589C80.5001 115.159 77.1472 119.172 72.9563 122.312C72.6769 122.486 72.3974 122.696 72.1181 122.905C72.0483 122.975 71.9434 123.01 71.8736 123.08C71.6291 123.254 71.3846 123.428 71.1052 123.603L71.21 123.812H71.245C71.7339 123.743 72.2229 123.673 72.7118 123.603H72.7468C73.6549 123.463 74.5629 123.289 75.471 123.114C75.7154 123.079 75.9948 123.01 76.2393 122.94C76.4139 122.905 76.5536 122.87 76.7283 122.835C76.9727 122.8 77.2172 122.731 77.4617 122.696C77.6712 122.626 77.8808 122.591 78.0903 122.521C81.5829 121.684 84.9706 120.533 88.2186 119.172C82.6655 126.743 75.2265 132.849 66.5301 136.861C70.5465 136.582 74.5629 135.919 78.4396 134.803C92.5144 130.651 104.354 121.195 111.444 108.461C110.012 116.52 106.799 124.196 102.049 130.895C105.437 128.662 108.545 126.08 111.374 123.149C119.197 114.985 124.331 104.623 126.077 93.4926C127.265 99.0053 127.614 104.692 127.09 110.31C152.306 75.1753 129.186 38.7499 119.512 29.1551C119.476 29.0853 119.442 29.0504 119.442 28.9806C119.407 29.0156 119.407 29.0156 119.407 29.0504C119.407 29.0154 119.407 29.0154 119.372 28.9806C119.372 29.3993 119.337 29.818 119.302 30.2367C119.197 31.0391 119.092 31.8067 118.953 32.5743C118.778 33.3419 118.568 34.1095 118.359 34.8771C118.114 35.6097 117.835 36.3773 117.521 37.11C117.206 37.8078 116.857 38.5405 116.473 39.2383C116.089 39.9013 115.67 40.5991 115.216 41.2271C114.762 41.89 114.273 42.518 113.784 43.1111C113.26 43.7392 112.701 44.2974 112.142 44.8557C111.793 45.1697 111.479 45.4488 111.129 45.7279C110.85 45.9722 110.606 46.1815 110.326 46.4257C109.698 46.9142 109.069 47.3678 108.37 47.7864C107.707 48.2051 107.008 48.6238 106.31 48.9727C105.576 49.3216 104.843 49.6356 104.11 49.9496C103.376 50.2287 102.608 50.473 101.839 50.6823C101.071 50.8917 100.268 51.0661 99.4994 51.2057C98.6961 51.3453 97.8928 51.415 97.1245 51.4848C96.5657 51.5197 96.0069 51.5545 95.4481 51.5545C94.6448 51.5545 93.8415 51.4848 93.0732 51.4149C92.2699 51.3452 91.4666 51.2405 90.6983 51.066C89.895 50.9264 89.1266 50.7171 88.3583 50.4729H88.3233C89.0917 50.4032 89.86 50.3333 90.6284 50.1937C91.4316 50.0541 92.2 49.8798 92.9684 49.6704C93.7367 49.4611 94.5051 49.2168 95.2385 48.9377C96.0068 48.6586 96.7403 48.3097 97.4388 47.9608C98.1722 47.6119 98.8358 47.2281 99.5343 46.8094C100.198 46.3558 100.861 45.9023 101.49 45.4138C102.119 44.9253 102.712 44.402 103.271 43.8437C103.865 43.3204 104.389 42.7272 104.913 42.1341C105.437 41.5061 105.926 40.8781 106.38 40.25C106.449 40.1454 106.519 40.0058 106.589 39.9011C106.938 39.3429 107.288 38.7847 107.602 38.2264C107.986 37.5286 108.335 36.8308 108.65 36.0981C108.964 35.3654 109.243 34.6327 109.488 33.8651C109.732 33.1324 109.907 32.3649 110.082 31.5973C110.221 30.7948 110.361 30.0272 110.431 29.2596C110.501 28.4572 110.571 27.6547 110.571 26.8871C110.571 26.3288 110.536 25.7706 110.501 25.2124C110.431 24.4099 110.326 23.6423 110.221 22.8747C110.082 22.0722 109.907 21.3047 109.698 20.5371C109.453 19.8044 109.209 19.0368 108.929 18.3041C108.65 17.5714 108.301 16.8387 107.951 16.1409C107.567 15.4431 107.183 14.7453 106.764 14.0824C106.31 13.4195 105.856 12.7915 105.367 12.1634C104.843 11.5703 104.319 10.9772 103.76 10.384C103.481 10.1049 103.167 9.7909 102.852 9.51178C101.281 8.29062 99.6391 7.13923 97.9977 6.09253C97.7532 5.95292 97.5437 5.8483 97.2992 5.74362C96.1466 5.01094 95.0639 4.62694 93.9812 4.27805Z" fill="#3F3F3F"/>
</svg>
