<svg width="143" height="143" viewBox="0 0 143 143" fill="none" xmlns="http://www.w3.org/2000/svg">
<g clip-path="url(#clip0_212_61)">
<mask id="mask0_212_61" style="mask-type:alpha" maskUnits="userSpaceOnUse" x="0" y="0" width="143" height="143">
<path d="M71.5 143C110.988 143 143 110.988 143 71.5C143 32.0116 110.988 0 71.5 0C32.0116 0 0 32.0116 0 71.5C0 110.988 32.0116 143 71.5 143Z" fill="black"/>
</mask>
<g mask="url(#mask0_212_61)">
<path d="M71.5 143C110.988 143 143 110.988 143 71.5C143 32.0116 110.988 0 71.5 0C32.0116 0 0 32.0116 0 71.5C0 110.988 32.0116 143 71.5 143Z" fill="#3F3F3F"/>
<path d="M118.776 125.141L54.9294 42.9H42.8999V100.076H52.5235V55.1214L111.221 130.96C113.87 129.188 116.393 127.242 118.776 125.141Z" fill="url(#paint0_linear_212_61)"/>
<path d="M100.895 42.9H91.3613V100.1H100.895V42.9Z" fill="url(#paint1_linear_212_61)"/>
</g>
</g>
<defs>
<linearGradient id="paint0_linear_212_61" x1="86.5944" y1="92.5528" x2="114.797" y2="127.508" gradientUnits="userSpaceOnUse">
<stop stop-color="white"/>
<stop offset="1" stop-color="white" stop-opacity="0"/>
</linearGradient>
<linearGradient id="paint1_linear_212_61" x1="96.128" y1="42.9" x2="95.9683" y2="84.9063" gradientUnits="userSpaceOnUse">
<stop stop-color="white"/>
<stop offset="1" stop-color="white" stop-opacity="0"/>
</linearGradient>
<clipPath id="clip0_212_61">
<rect width="143" height="143" fill="white"/>
</clipPath>
</defs>
</svg>
