<svg width="143" height="132" viewBox="0 0 143 132" fill="none" xmlns="http://www.w3.org/2000/svg">
<g clip-path="url(#clip0_210_37)">
<path d="M71.4999 79.9682C79.0215 79.9682 85.119 73.7144 85.119 66C85.119 58.2855 79.0215 52.0317 71.4999 52.0317C63.9783 52.0317 57.8809 58.2855 57.8809 66C57.8809 73.7144 63.9783 79.9682 71.4999 79.9682Z" fill="#3F3F3F"/>
<path d="M71.5 97.4286C109.108 97.4286 139.595 83.3575 139.595 66C139.595 48.6425 109.108 34.5714 71.5 34.5714C33.8921 34.5714 3.40479 48.6425 3.40479 66C3.40479 83.3575 33.8921 97.4286 71.5 97.4286Z" stroke="#3F3F3F" stroke-width="2"/>
<path d="M44.9626 81.7143C63.7666 115.119 90.8915 135.163 105.548 126.484C120.204 117.806 116.842 83.6903 98.0376 50.2857C79.2336 16.8811 52.1088 -3.16308 37.4525 5.51568C22.7962 14.1944 26.1586 48.3097 44.9626 81.7143Z" stroke="#3F3F3F" stroke-width="2"/>
<path d="M44.9626 50.2857C26.1586 83.6903 22.7962 117.806 37.4525 126.484C52.1087 135.163 79.2336 115.119 98.0376 81.7143C116.842 48.3097 120.204 14.1945 105.548 5.51569C90.8915 -3.16307 63.7666 16.8812 44.9626 50.2857Z" stroke="#3F3F3F" stroke-width="2"/>
</g>
<defs>
<clipPath id="clip0_210_37">
<rect width="143" height="132" fill="white"/>
</clipPath>
</defs>
</svg>
